<?xml version="1.0" encoding="iso-8859-1"?>
<!-- Uploaded to: SVG Repo, www.svgrepo.com, Generator: SVG Repo Mixer Tools -->
<svg height="800px" width="800px" version="1.1" id="Layer_1" xmlns="http://www.w3.org/2000/svg" xmlns:xlink="http://www.w3.org/1999/xlink" 
	 viewBox="0 0 512 512" xml:space="preserve">
<path style="fill:#463246;" d="M395.034,249.907c0,0,60.963,24.834,76.138,69.885c17.655,52.414-21.517,119.172-57.379,137.931
	c-39.37,20.594-84.966,13.793-104.828-6.621C291.554,433.206,256,318.688,256,318.688v-70.621L395.034,249.907z"/>
<path style="fill:#87CDD7;" d="M390.311,249.844c17.999,19.518,50.905,63.748,35.62,113.534
	c-18.258,59.467-82.845,76.979-127.142,71.254c-3.895-7.891-8.066-17.644-12.23-28.17c18.493-2.609,84.199-8.326,101.854-78.946
	c10.918-43.668-17.655-70.621-26.95-78.054L390.311,249.844z"/>
<path style="fill:#6EB4C8;" d="M425.931,363.378c-6.084,19.818-17.376,34.884-31.286,46.076
	c13.076-68.103,1.305-109.933-11.699-133.664c-2.958-5.772-6.397-10.681-9.766-14.727c-6.553-8.138-11.716-11.601-11.716-11.601
	l28.846,0.382C408.309,269.362,441.216,313.592,425.931,363.378z"/>
<path style="fill:#5A464B;" d="M453.149,337.814c0.988-19.898-6.639-42.239-19.234-65.148c15.224,11.583,30.621,27.42,37.258,47.125
	c17.655,52.414-21.517,119.172-57.379,137.931c-30.507,15.957-64.7,15.42-87.814,4.893
	C382.822,458.037,448.858,424.281,453.149,337.814z"/>
<g>
	<circle style="fill:#908490;" cx="452.381" cy="349.859" r="7.389"/>
	<circle style="fill:#908490;" cx="447.967" cy="314.637" r="7.389"/>
	<circle style="fill:#908490;" cx="444.69" cy="385.997" r="7.389"/>
	<circle style="fill:#908490;" cx="396.105" cy="441.909" r="7.389"/>
	<circle style="fill:#908490;" cx="425.346" cy="417.721" r="7.389"/>
	<circle style="fill:#908490;" cx="360.828" cy="453.308" r="7.389"/>
</g>
<path style="fill:#463246;" d="M450.207,45.033C484.736,33.523,512,53.86,512,89.171c0,70.621-35.31,167.724-61.793,167.724
	c-17.655,0-176.552-8.828-176.552-8.828v-8.828C300.138,159.791,397.241,62.688,450.207,45.033z"/>
<g>
	<circle style="fill:#908490;" cx="406.257" cy="106.825" r="17.471"/>
	<circle style="fill:#908490;" cx="374.257" cy="142.135" r="11.418"/>
	<circle style="fill:#908490;" cx="435.41" cy="130.836" r="12.804"/>
	<circle style="fill:#908490;" cx="436.877" cy="173.495" r="12.804"/>
	<circle style="fill:#908490;" cx="345.457" cy="157.484" r="8.482"/>
	<circle style="fill:#908490;" cx="470.797" cy="190.676" r="7.389"/>
	<circle style="fill:#908490;" cx="484.039" cy="143.228" r="7.389"/>
	<circle style="fill:#908490;" cx="491.586" cy="91.377" r="7.389"/>
	<circle style="fill:#908490;" cx="449.457" cy="237.385" r="7.389"/>
	<circle style="fill:#908490;" cx="424.375" cy="217.633" r="12.804"/>
</g>
<path style="fill:#5A464B;" d="M273.655,239.24c0.264-0.791,0.641-1.608,0.918-2.401c10.106-6.418,31.98-18.898,61.786-27.97
	c0.007-0.013,0.004-0.029,0.011-0.042C387.071,106.819,464.271,64.444,495.564,50.8c4.702,3.778,8.574,8.623,11.357,14.439
	c-13.512,5.611-43.126,19.872-75.494,48.055c33.088-6.688,64.922-2.34,79.289,0.388c-0.568,5.804-1.301,11.676-2.212,17.575
	c-16.53-3.21-66.183-10.324-105.323,10.242c-0.162,0.084-0.335,0.115-0.501,0.188c-4.341,4.866-8.659,10.009-12.926,15.428
	c50.083-8.894,93.803,2.178,111.838,7.968c-1.468,5.796-3.059,11.491-4.753,17.043c-17.926-5.753-68.692-18.816-122.754-3.308
	c-5.056,7.602-9.969,15.649-14.686,24.184c35.764-7.334,79.532-8.002,126.536,9.406c-2.449,5.761-4.988,11.124-7.582,15.998
	c-86.452-31.278-162.845,5.025-189.479,20.5c-9.441-0.518-15.22-0.839-15.22-0.839L273.655,239.24L273.655,239.24z"/>
<path style="fill:#463246;" d="M116.966,249.907c0,0-60.963,24.834-76.138,69.885c-17.655,52.414,21.517,119.172,57.379,137.931
	c39.37,20.594,84.966,13.793,104.828-6.621C220.446,433.206,256,318.688,256,318.688v-70.621L116.966,249.907z"/>
<path style="fill:#87CDD7;" d="M121.689,249.844c-17.998,19.518-50.905,63.748-35.62,113.534
	c18.258,59.467,82.845,76.979,127.142,71.254c3.895-7.891,8.066-17.644,12.23-28.17c-18.494-2.609-84.199-8.326-101.854-78.946
	c-10.918-43.668,17.655-70.621,26.95-78.054L121.689,249.844z"/>
<path style="fill:#6EB4C8;" d="M86.069,363.378c6.084,19.818,17.376,34.884,31.286,46.076
	c-13.076-68.103-1.305-109.933,11.699-133.664c2.958-5.772,6.397-10.681,9.766-14.727c6.553-8.138,11.716-11.601,11.716-11.601
	l-28.846,0.382C103.691,269.362,70.784,313.592,86.069,363.378z"/>
<path style="fill:#5A464B;" d="M58.85,337.814c-0.988-19.898,6.639-42.239,19.234-65.148c-15.223,11.584-30.62,27.421-37.257,47.125
	c-17.655,52.414,21.517,119.172,57.379,137.931c30.507,15.957,64.7,15.42,87.814,4.893
	C129.178,458.037,63.142,424.281,58.85,337.814z"/>
<g>
	<circle style="fill:#908490;" cx="59.619" cy="349.859" r="7.389"/>
	<circle style="fill:#908490;" cx="64.033" cy="314.637" r="7.389"/>
	<circle style="fill:#908490;" cx="67.31" cy="385.997" r="7.389"/>
	<circle style="fill:#908490;" cx="115.895" cy="441.909" r="7.389"/>
	<circle style="fill:#908490;" cx="86.654" cy="417.721" r="7.389"/>
	<circle style="fill:#908490;" cx="151.172" cy="453.308" r="7.389"/>
	<path style="fill:#908490;" d="M256,225.998c-2.44,0-4.414-1.974-4.414-4.414c0-35.155-26.983-104.604-60.5-138.121
		c-1.724-1.725-1.724-4.518,0-6.241c1.725-1.725,4.518-1.725,6.241,0C224.405,104.3,246.854,152.128,256,189.981
		c9.146-37.854,31.595-85.681,58.673-112.758c1.725-1.725,4.518-1.725,6.241,0s1.725,4.518,0,6.241
		c-33.517,33.517-60.5,102.966-60.5,138.121C260.414,224.024,258.44,225.998,256,225.998z"/>
</g>
<path style="fill:#463246;" d="M61.793,45.033C27.264,33.523,0,53.86,0,89.171c0,70.621,35.31,167.724,61.793,167.724
	c17.655,0,176.552-8.828,176.552-8.828v-8.828C211.862,159.791,114.759,62.688,61.793,45.033z"/>
<g>
	<circle style="fill:#908490;" cx="105.743" cy="106.825" r="17.471"/>
	<circle style="fill:#908490;" cx="137.743" cy="142.135" r="11.418"/>
	<circle style="fill:#908490;" cx="76.59" cy="130.836" r="12.804"/>
	<circle style="fill:#908490;" cx="75.123" cy="173.495" r="12.804"/>
	<circle style="fill:#908490;" cx="166.543" cy="157.484" r="8.482"/>
	<circle style="fill:#908490;" cx="41.203" cy="190.676" r="7.389"/>
	<circle style="fill:#908490;" cx="27.965" cy="143.228" r="7.389"/>
	<circle style="fill:#908490;" cx="20.414" cy="91.377" r="7.389"/>
	<circle style="fill:#908490;" cx="62.539" cy="237.385" r="7.389"/>
	<circle style="fill:#908490;" cx="87.625" cy="217.633" r="12.804"/>
</g>
<path style="fill:#5A464B;" d="M256,376.067c-7.31,0-13.241-5.931-13.241-13.241v-70.621c0-7.31,5.931-13.241,13.241-13.241
	c7.31,0,13.241,5.931,13.241,13.241v70.621C269.241,370.136,263.31,376.067,256,376.067z"/>
<path style="fill:#463246;" d="M256,309.86L256,309.86c-9.751,0-17.655-7.904-17.655-17.655V239.24
	c0-9.751,7.904-17.655,17.655-17.655l0,0c9.751,0,17.655,7.904,17.655,17.655v52.966C273.655,301.956,265.751,309.86,256,309.86z"/>
<g>
	<circle style="fill:#5A464B;" cx="256" cy="221.583" r="13.241"/>
	<path style="fill:#5A464B;" d="M238.345,239.24c-0.264-0.791-0.641-1.608-0.918-2.401c-10.106-6.418-31.98-18.898-61.786-27.97
		c-0.007-0.013-0.004-0.029-0.011-0.042C124.929,106.819,47.729,64.444,16.437,50.798c-4.702,3.778-8.574,8.623-11.357,14.439
		c13.512,5.611,43.126,19.872,75.494,48.055c-33.088-6.688-64.922-2.34-79.289,0.388c0.568,5.804,1.301,11.676,2.212,17.575
		c16.53-3.21,66.183-10.324,105.323,10.242c0.162,0.084,0.335,0.115,0.501,0.188c4.341,4.866,8.659,10.009,12.926,15.428
		c-50.083-8.894-93.803,2.178-111.838,7.968c1.468,5.796,3.059,11.491,4.753,17.043c17.926-5.753,68.692-18.816,122.754-3.308
		c5.056,7.602,9.969,15.649,14.686,24.184c-35.764-7.334-79.532-8.002-126.536,9.406c2.449,5.761,4.988,11.124,7.582,15.998
		c86.452-31.278,162.845,5.025,189.479,20.5c9.441-0.518,15.22-0.839,15.22-0.839v-8.825H238.345z"/>
</g>
</svg>