<?xml version="1.0" encoding="iso-8859-1"?>
<!-- Uploaded to: SVG Repo, www.svgrepo.com, Generator: SVG Repo Mixer Tools -->
<svg height="800px" width="800px" version="1.1" id="Layer_1" xmlns="http://www.w3.org/2000/svg" xmlns:xlink="http://www.w3.org/1999/xlink" 
	 viewBox="0 0 512 512" xml:space="preserve">
<path style="fill:#FFAA41;" d="M264.825,294.129v-35.31h123.585c0,0,28.346,7.676,44.138,35.31
	c35.31,61.793-14.791,123.585-70.62,123.585C308.963,417.714,264.825,294.129,264.825,294.129z"/>
<path style="fill:#A56946;" d="M264.825,258.971c1.518-0.004,3.044,0.236,4.448,1.05l97.415,56.825
	c4.695-23.861-0.97-45.131-6.051-58.028h18.889c5.512,16.299,9.987,40.039,3.436,66.534c-7.139,28.87-25.855,54.327-55.366,76.064
	c-4.177-3.847-8.223-8.197-12.11-12.931c22.302-16.084,37.729-34.232,45.951-54.262l-96.611-56.357V258.971z"/>
<g>
	<path style="fill:#695046;" d="M318.935,392.516c23.206,2.027,80.155,1.064,95.959-54.25c8.558-29.956-1.58-55.698-14.273-74.339
		c9.609,5.023,22.837,14.293,31.928,30.201c35.31,61.793-14.789,123.585-70.62,123.585
		C346.563,417.714,331.952,407.284,318.935,392.516z"/>
	<path style="fill:#695046;" d="M480.634,94.286c-18.367,0-45.499,8.435-83.396,32.12
		c-53.98,33.738-132.413,114.758-132.413,114.758v17.655h167.648c10.668,0,20.273-6.359,24.401-16.196
		c6.738-16.055,17.688-41.351,28.639-63.251c11.997-23.992,26.763-45.164,26.483-61.796c-0.052-3.103-0.701-6.048-2.089-8.824
		C505.817,100.57,496.494,94.286,480.634,94.286L480.634,94.286z"/>
</g>
<path style="fill:#FFAA41;" d="M391.105,148.756c13.683,6.912,32.473,20.915,39.454,47.428c1.565,5.941,10.049,5.534,11.019-0.533
	c3.475-21.746,5.282-48.354,0.278-72.274c-0.983-4.698,1.559-9.474,6.137-10.919c8.773-2.767,15.522-3.708,20.489-3.708
	c4.864,0,13.459,0.919,16.379,7.082c0.424,0.896,0.631,1.88,0.65,3.097c0.14,8.809-6.97,22.55-14.5,37.098
	c-2.996,5.79-6.095,11.777-9.074,18.061c-10.269,21.661-20.49,46.477-27.256,63.481c-1.935,4.865-6.433,8.008-11.457,8.008H279.055
	c14.602-15.536,62.457-65.444,102.277-95.924C384.159,147.489,387.929,147.151,391.105,148.756z"/>
<g>
	<path style="fill:#FF9641;" d="M441.856,123.377c-0.983-4.698,1.56-9.474,6.137-10.919c8.773-2.767,15.522-3.706,20.489-3.706
		c4.864,0,13.459,0.919,16.379,7.082c0.424,0.896,0.631,1.88,0.65,3.097c0.14,8.809-6.97,22.55-14.5,37.098
		c-0.503,0.972-1.015,2.048-1.523,3.032c-8.566,3.321-16.885,6.625-24.953,9.917C445.428,153.936,444.946,138.145,441.856,123.377z"
		/>
	<path style="fill:#FF9641;" d="M381.332,149.653c2.827-2.164,6.596-2.503,9.773-0.897c10.121,5.113,23.01,14.143,31.873,29.206
		c-65.009,27.71-111.486,52.961-136.532,67.616h-7.391C293.657,230.041,341.512,180.134,381.332,149.653z"/>
</g>
<g>
	<path style="fill:#A56946;" d="M444.894,159.279c9.853-3.992,20.051-8.004,30.606-12.021c-1.447,2.872-2.95,5.795-4.489,8.77
		c-2.45,4.733-4.952,9.712-7.417,14.763c-6.807,2.69-13.355,5.364-19.835,8.032C444.386,172.477,444.787,165.912,444.894,159.279z"
		/>
	<path style="fill:#A56946;" d="M279.055,245.578c2.919-3.105,7.212-7.628,12.458-13.05c26.597-15.085,69.457-37.632,126.4-62.009
		c3.443,4.429,6.537,9.518,9.046,15.359c-54.459,23.211-96.039,44.774-122.662,59.701L279.055,245.578L279.055,245.578z"/>
</g>
<g>
	<circle style="fill:#8C6950;" cx="414.893" cy="373.581" r="8.828"/>
	<circle style="fill:#8C6950;" cx="416.824" cy="137.445" r="8.828"/>
	<circle style="fill:#8C6950;" cx="394.06" cy="392.064" r="5.931"/>
	<circle style="fill:#8C6950;" cx="428.135" cy="349.438" r="5.931"/>
	<circle style="fill:#8C6950;" cx="428.874" cy="158.079" r="5.931"/>
</g>
<path style="fill:#FFAA41;" d="M247.175,294.129v-35.31H123.589c0,0-28.346,7.676-44.138,35.31
	c-35.31,61.793,14.791,123.585,70.62,123.585C203.037,417.714,247.175,294.129,247.175,294.129z"/>
<path style="fill:#A56946;" d="M247.175,258.971c-1.518-0.004-3.044,0.236-4.448,1.05l-97.415,56.825
	c-4.695-23.861,0.97-45.131,6.051-58.028h-18.889c-5.512,16.299-9.987,40.039-3.436,66.534c7.139,28.87,25.855,54.327,55.366,76.064
	c4.177-3.847,8.223-8.197,12.11-12.931c-22.302-16.084-37.729-34.232-45.951-54.262l96.611-56.356V258.971z"/>
<g>
	<path style="fill:#695046;" d="M193.065,392.516c-23.206,2.027-80.155,1.064-95.959-54.25c-8.558-29.956,1.58-55.698,14.273-74.339
		c-9.609,5.023-22.837,14.293-31.928,30.201c-35.31,61.793,14.789,123.585,70.62,123.585
		C165.436,417.714,180.048,407.284,193.065,392.516z"/>
	<path style="fill:#695046;" d="M31.366,94.286c-15.861,0-25.183,6.284-29.273,14.465c-1.388,2.776-2.037,5.721-2.089,8.824
		c-0.28,16.632,14.486,37.804,26.483,61.796c10.951,21.9,21.9,47.196,28.639,63.251c4.128,9.837,13.733,16.196,24.401,16.196
		h167.648v-17.655c0,0-78.433-81.02-132.413-114.758C76.865,102.721,49.733,94.286,31.366,94.286L31.366,94.286z"/>
</g>
<path style="fill:#908490;" d="M256.002,254.405c-2.198,0-4.061-1.621-4.371-3.797c-0.086-0.612-9.216-62.003-51.965-112.526
	c-1.578-1.858-1.345-4.642,0.518-6.22c1.863-1.556,4.647-1.341,6.225,0.522c29.483,34.84,43.43,73.788,49.594,96.823
	c6.164-23.034,20.112-61.982,49.594-96.823c1.578-1.863,4.38-2.078,6.224-0.522c1.863,1.578,2.094,4.362,0.518,6.22
	c-42.75,50.521-51.879,111.913-51.965,112.526C260.062,252.784,258.2,254.405,256.002,254.405z"/>
<path style="fill:#5A464B;" d="M256.002,364.749c-4.879,0-8.828-3.953-8.828-8.828V223.509c0-4.875,3.948-8.828,8.828-8.828
	c4.879,0,8.828,3.953,8.828,8.828v132.413C264.83,360.797,260.881,364.749,256.002,364.749z"/>
<path style="fill:#FFAA41;" d="M120.894,148.756c-13.683,6.912-32.473,20.915-39.454,47.428c-1.565,5.941-10.049,5.534-11.019-0.533
	c-3.475-21.746-5.282-48.354-0.278-72.274c0.983-4.698-1.559-9.474-6.137-10.919c-8.773-2.767-15.522-3.708-20.489-3.708
	c-4.864,0-13.459,0.919-16.379,7.082c-0.424,0.896-0.631,1.88-0.65,3.097c-0.14,8.809,6.97,22.55,14.5,37.098
	c2.996,5.79,6.095,11.777,9.074,18.061c10.269,21.661,20.49,46.477,27.256,63.481c1.935,4.865,6.433,8.008,11.457,8.008h144.169
	c-14.602-15.536-62.457-65.444-102.277-95.924C127.841,147.489,124.072,147.151,120.894,148.756z"/>
<g>
	<path style="fill:#FF9641;" d="M70.143,123.377c0.983-4.698-1.56-9.474-6.137-10.919c-8.773-2.767-15.522-3.706-20.489-3.706
		c-4.864,0-13.459,0.919-16.379,7.082c-0.424,0.896-0.631,1.88-0.65,3.097c-0.14,8.809,6.97,22.55,14.5,37.098
		c0.503,0.972,1.015,2.048,1.523,3.032c8.566,3.321,16.885,6.625,24.953,9.917C66.572,153.936,67.055,138.145,70.143,123.377z"/>
	<path style="fill:#FF9641;" d="M130.668,149.653c-2.827-2.164-6.596-2.503-9.773-0.897c-10.121,5.113-23.01,14.143-31.873,29.206
		c65.009,27.71,111.486,52.961,136.532,67.616h7.391C218.342,230.041,170.487,180.134,130.668,149.653z"/>
</g>
<path style="fill:#463246;" d="M256.002,311.784L256.002,311.784c-9.751,0-17.655-7.904-17.655-17.655v-44.138
	c0-9.751,7.904-17.655,17.655-17.655l0,0c9.751,0,17.655,7.904,17.655,17.655v44.138
	C273.657,303.88,265.752,311.784,256.002,311.784z"/>
<g>
	<path style="fill:#A56946;" d="M67.105,159.279c-9.853-3.992-20.051-8.004-30.606-12.021c1.447,2.872,2.95,5.795,4.489,8.77
		c2.45,4.733,4.952,9.712,7.417,14.763c6.807,2.69,13.355,5.364,19.835,8.032C67.613,172.477,67.212,165.912,67.105,159.279z"/>
	<path style="fill:#A56946;" d="M232.944,245.578c-2.919-3.105-7.212-7.628-12.458-13.05c-26.597-15.085-69.457-37.632-126.4-62.009
		c-3.443,4.429-6.537,9.518-9.046,15.359c54.459,23.211,96.039,44.774,122.662,59.701L232.944,245.578L232.944,245.578z"/>
</g>
<g>
	<circle style="fill:#8C6950;" cx="97.102" cy="373.581" r="8.828"/>
	<circle style="fill:#8C6950;" cx="95.171" cy="137.445" r="8.828"/>
	<circle style="fill:#8C6950;" cx="117.935" cy="392.064" r="5.931"/>
	<circle style="fill:#8C6950;" cx="83.861" cy="349.438" r="5.931"/>
	<circle style="fill:#8C6950;" cx="83.133" cy="158.079" r="5.931"/>
</g>
</svg>