<?xml version="1.0" encoding="iso-8859-1"?>
<!-- Uploaded to: SVG Repo, www.svgrepo.com, Generator: SVG Repo Mixer Tools -->
<svg height="800px" width="800px" version="1.1" id="Layer_1" xmlns="http://www.w3.org/2000/svg" xmlns:xlink="http://www.w3.org/1999/xlink" 
	 viewBox="0 0 512 512" xml:space="preserve">
<path style="fill:#FFAA41;" d="M251.034,254.308l-138.483,3.862c0,0-26.169,11.532-41.931,30.897
	c-12.874,15.816-21.333,58.115,8.828,97.103c27.007,34.911,82.759,44.69,105.931,35.31C211.255,411.007,256,297.895,256,297.895
	L251.034,254.308z"/>
<path style="fill:#BE824B;" d="M252.998,271.54l-1.963-17.231l-138.483,3.862c0,0-3.384,1.502-8.414,4.288
	C148.564,266.889,211.49,284.576,252.998,271.54z"/>
<path style="fill:#594759;" d="M19.961,87.158c-3.789,0-7.267,0.512-10.399,1.594C5.494,90.16,0,95.006,0,103.833
	c0,26.873,34.464,102.23,51.916,138.665c5.886,12.29,18.236,20.085,31.839,20.085c0.129,0,0.257-0.001,0.386-0.002
	c39.686-0.431,139.025-2.113,171.859-8.68C256,253.902,88.268,87.158,19.961,87.158z"/>
<path style="fill:#FFAA41;" d="M83.755,244.929c-6.847,0-12.946-3.853-15.916-10.057l-0.072-0.149
	c-5.011-10.464-8.438-21.63-10.157-33.103c-2.994-19.975-4.004-39.335-0.898-43.373c5.103-6.635,28.043-6.187,53.258-2.029
	c5.798,0.956,11.29,3.252,15.948,6.835c27.488,21.148,55.873,45.468,80.948,68.438c3.719,3.406,1.553,9.622-3.481,9.913
	C172.906,243.17,131.775,244.408,83.755,244.929z"/>
<circle style="fill:#BE824B;" cx="39.724" cy="125.76" r="16.552"/>
<g>
	<circle style="fill:#908490;" cx="75.123" cy="132.646" r="8.636"/>
	<circle style="fill:#908490;" cx="36.887" cy="160.397" r="6.952"/>
</g>
<path style="fill:#594759;" d="M90.483,344.791c-13.277-26.87-3.913-41.025-16.099-59.976c-1.299,1.376-2.568,2.783-3.763,4.252
	c-12.874,15.816-21.333,58.115,8.828,97.103c27.007,34.911,82.759,44.69,105.931,35.31c5.82-2.356,12.595-9.928,19.599-20.211
	C159.746,408.523,110.815,385.94,90.483,344.791z"/>
<path style="fill:#BE824B;" d="M125.918,163.052c-4.658-3.583-10.15-5.879-15.948-6.835c-21.899-3.612-42.046-4.409-50.319-0.214
	c48.129,23.41,109.624,65.795,137.631,85.727c2.036-0.109,4.152-0.213,6.102-0.327c5.035-0.291,7.2-6.506,3.481-9.913
	C181.792,208.521,153.406,184.2,125.918,163.052z"/>
<path style="fill:#FFAA41;" d="M260.966,254.308l138.483,3.862c0,0,26.169,11.532,41.931,30.897
	c12.874,15.816,21.333,58.115-8.828,97.103c-27.007,34.911-82.759,44.69-105.931,35.31C300.745,411.007,256,297.895,256,297.895
	L260.966,254.308z"/>
<path style="fill:#BE824B;" d="M259.002,271.54l1.963-17.231l138.483,3.862c0,0,3.384,1.502,8.414,4.288
	C363.436,266.889,300.51,284.576,259.002,271.54z"/>
<path style="fill:#594759;" d="M256,253.902c32.833,6.567,132.172,8.248,171.859,8.68c0.129,0.001,0.257,0.002,0.386,0.002
	c13.603,0,25.953-7.795,31.839-20.085C477.536,206.064,512,130.707,512,103.833c0-8.828-5.494-13.674-9.564-15.081
	c-3.132-1.082-6.61-1.594-10.399-1.594C423.732,87.158,256,253.902,256,253.902z"/>
<path style="fill:#FFAA41;" d="M308.617,241.405c-5.035-0.291-7.2-6.507-3.481-9.913c25.074-22.97,53.46-47.292,80.948-68.438
	c4.658-3.583,10.151-5.879,15.948-6.835c25.215-4.158,48.154-4.606,53.258,2.029c3.106,4.039,2.095,23.399-0.898,43.373
	c-1.719,11.474-5.146,22.639-10.157,33.103l-0.072,0.149c-2.97,6.204-9.069,10.057-15.916,10.057
	C380.225,244.408,339.094,243.17,308.617,241.405z"/>
<circle style="fill:#BE824B;" cx="472.276" cy="125.76" r="16.552"/>
<g>
	<circle style="fill:#908490;" cx="436.877" cy="132.646" r="8.636"/>
	<circle style="fill:#908490;" cx="475.112" cy="160.397" r="6.952"/>
</g>
<path style="fill:#594759;" d="M421.517,344.791c13.277-26.87,3.913-41.025,16.099-59.976c1.299,1.376,2.568,2.783,3.763,4.252
	c12.874,15.816,21.333,58.115-8.828,97.103c-27.007,34.911-82.759,44.69-105.931,35.31c-5.82-2.356-12.595-9.928-19.599-20.211
	C352.254,408.523,401.185,385.94,421.517,344.791z"/>
<path style="fill:#BE824B;" d="M386.082,163.052c4.658-3.583,10.15-5.879,15.948-6.835c21.899-3.612,42.046-4.409,50.319-0.214
	c-48.129,23.41-109.624,65.795-137.631,85.727c-2.036-0.109-4.152-0.213-6.102-0.327c-5.035-0.291-7.2-6.506-3.481-9.913
	C330.208,208.521,358.594,184.2,386.082,163.052z"/>
<path style="fill:#908490;" d="M256,240.515c-1.526,0-2.94-0.785-3.742-2.073l-44.138-70.621c-1.293-2.069-0.664-4.793,1.405-6.082
	c2.051-1.289,4.793-0.672,6.078,1.401L256,227.774l40.396-64.633c1.302-2.073,4.043-2.689,6.078-1.401
	c2.069,1.289,2.698,4.013,1.405,6.082l-44.138,70.621C258.94,239.731,257.526,240.515,256,240.515z"/>
<g>
	<path style="fill:#463246;" d="M256,386.171c-4.879,0-8.828-3.953-8.828-8.828v-88.276c0-4.875,3.948-8.828,8.828-8.828
		c4.879,0,8.828,3.953,8.828,8.828v88.276C264.828,382.218,260.879,386.171,256,386.171z"/>
	<path style="fill:#463246;" d="M256,266.998c-7.31,0-13.241-5.927-13.241-13.241v-17.655c0-7.315,5.931-13.241,13.241-13.241
		c7.31,0,13.241,5.927,13.241,13.241v17.655C269.241,261.072,263.31,266.998,256,266.998z"/>
</g>
<path style="fill:#594759;" d="M256,297.895L256,297.895c-9.751,0-17.655-7.904-17.655-17.655v-17.655
	c0-9.751,7.904-17.655,17.655-17.655l0,0c9.751,0,17.655,7.904,17.655,17.655v17.655C273.655,289.991,265.751,297.895,256,297.895z"
	/>
</svg>