<?xml version="1.0" encoding="iso-8859-1"?>
<!-- Uploaded to: SVG Repo, www.svgrepo.com, Generator: SVG Repo Mixer Tools -->
<svg height="800px" width="800px" version="1.1" id="Layer_1" xmlns="http://www.w3.org/2000/svg" xmlns:xlink="http://www.w3.org/1999/xlink" 
	 viewBox="0 0 512 512" xml:space="preserve">
<path style="fill:#6B5B6B;" d="M397.241,253.085c0,0,44.138,35.31,44.138,70.621c0,52.966-115.691,99.9-123.586,123.586
	c-8.828,26.483-26.483,17.655-26.483,17.655s-3.422-24.498-17.655-52.966C256,376.671,256,323.706,256,323.706V217.775
	L397.241,253.085z"/>
<path style="fill:#7E707E;" d="M317.353,233.114l79.889,19.972c0,0,44.138,35.31,44.138,70.621
	c0,22.417-20.737,43.743-45.241,62.692c8.828-14.141,17.287-41.359,12.505-63.428C404.072,301.871,386.207,259.706,317.353,233.114z
	"/>
<path style="fill:#4B78AA;" d="M264.828,226.602c8.828,61.793,33.611,48.708,74.483,102.069
	c19.862,25.931,18.943,54.988,16.391,72.034c-1.214,8.106-2.955,16.141-9.692,20.81c-14.77,10.238-25.948,18.97-28.216,25.775
	c-8.828,26.483-26.483,17.655-26.483,17.655s-3.422-24.498-17.655-52.966C256,376.67,256,323.705,256,323.705V225.13
	L264.828,226.602z"/>
<path style="fill:#594759;" d="M291.31,464.947c0,0-3.422-24.498-17.655-52.966C256,376.671,256,323.706,256,323.706V217.775
	l42.372,10.593l1.766,7.062c28.69,55.172-27.034,94.897-13.241,144.552C306.964,452.223,291.31,464.947,291.31,464.947z"/>
<path style="fill:#5A8CB9;" d="M512,58.879c0,35.31-22.583,70.837-26.483,105.931c-3.678,33.103-8.828,70.621-52.966,88.276
	c-44.138,17.655-167.724-26.483-167.724-26.483L256,208.948C300.138,50.052,512,32.397,512,58.879z"/>
<path style="fill:#4B78AA;" d="M256,208.948c2.526-9.092,5.662-17.667,9.215-25.854c5.13-12.032,58.463-42.193,149.682-35.572
	c65.388,4.746,74.897-58.574,30.759-71.264c-11.379-3.272-17.641-12.563-19.542-19.667C473.596,44.391,512,47.609,512,58.879
	c0,35.31-22.583,70.837-26.483,105.931c-3.678,33.103-8.828,70.621-52.966,88.276c-44.138,17.655-167.724-26.483-167.724-26.483
	L256,208.948z"/>
<g>
	<path style="fill:#463246;" d="M259.569,197.752c52.958-36.143,130.733-35.956,157.535-24.114
		c21.623,9.555,33.554,25.603,47.218,35.518c5.628,4.083,6.929,12.031,2.9,17.698c-7.549,10.616-18.487,19.761-34.669,26.233
		c-44.138,17.655-167.724-26.483-167.724-26.483L256,208.949C257.066,205.109,258.313,201.426,259.569,197.752z"/>
	<path style="fill:#463246;" d="M372.893,76.053C441.176,43.083,512,43.567,512,58.879c0,17.394-5.483,34.84-11.511,52.262
		C475.219,79.109,437.236,65.967,372.893,76.053z"/>
</g>
<path style="fill:#6B5B6B;" d="M114.759,253.085c0,0-44.138,35.31-44.138,70.621c0,52.966,115.691,99.9,123.586,123.586
	c8.828,26.483,26.483,17.655,26.483,17.655s3.422-24.498,17.655-52.966C256,376.671,256,323.706,256,323.706V217.775
	L114.759,253.085z"/>
<path style="fill:#7E707E;" d="M194.647,233.114l-79.889,19.971c0,0-44.138,35.31-44.138,70.621
	c0,22.417,20.737,43.743,45.241,62.692c-8.828-14.141-17.287-41.359-12.505-63.428C107.928,301.871,125.793,259.706,194.647,233.114
	z"/>
<path style="fill:#4B78AA;" d="M247.172,226.602c-8.828,61.793-33.611,48.708-74.483,102.069
	c-19.862,25.931-18.943,54.988-16.391,72.034c1.214,8.106,2.955,16.141,9.692,20.81c14.77,10.238,25.948,18.97,28.216,25.775
	c8.828,26.483,26.483,17.655,26.483,17.655s3.422-24.498,17.655-52.966C256,376.67,256,323.705,256,323.705V225.13L247.172,226.602z
	"/>
<path style="fill:#594759;" d="M220.69,464.947c0,0,3.422-24.498,17.655-52.966C256,376.671,256,323.706,256,323.706V217.775
	l-42.372,10.593l-1.766,7.062c-28.69,55.172,27.034,94.897,13.241,144.552C205.036,452.223,220.69,464.947,220.69,464.947z"/>
<path style="fill:#5A8CB9;" d="M0,58.879c0,35.31,22.583,70.837,26.483,105.931c3.678,33.103,8.828,70.621,52.966,88.276
	c44.138,17.655,167.724-26.483,167.724-26.483L256,208.948C211.862,50.052,0,32.397,0,58.879z"/>
<path style="fill:#4B78AA;" d="M256,208.948c-2.526-9.092-5.662-17.667-9.215-25.854c-5.13-12.032-58.463-42.193-149.682-35.572
	c-65.388,4.746-74.897-58.574-30.759-71.264c11.379-3.272,17.641-12.563,19.542-19.667C38.404,44.391,0,47.609,0,58.879
	c0,35.31,22.583,70.837,26.483,105.931c3.678,33.103,8.828,70.621,52.966,88.276c44.138,17.655,167.724-26.483,167.724-26.483
	L256,208.948z"/>
<path style="fill:#463246;" d="M252.431,197.752c-52.958-36.145-130.733-35.956-157.535-24.114
	c-21.623,9.555-33.554,25.603-47.218,35.518c-5.628,4.083-6.929,12.031-2.9,17.698c7.549,10.616,18.487,19.761,34.669,26.233
	c44.138,17.655,167.724-26.483,167.724-26.483L256,208.949C254.934,205.109,253.687,201.426,252.431,197.752z"/>
<path style="fill:#908490;" d="M256,204.535c-2.44,0-4.414-1.974-4.414-4.414c0-16.479-26.474-113.28-52.086-147.423
	c-1.457-1.949-1.06-4.715,0.888-6.177c1.949-1.452,4.707-1.074,6.182,0.884c20.483,27.315,40.742,90.453,49.431,127.297
	c8.69-36.845,28.948-99.982,49.431-127.297c1.474-1.956,4.242-2.332,6.182-0.884c1.949,1.461,2.345,4.228,0.888,6.177
	c-25.614,34.142-52.088,130.944-52.088,147.423C260.414,202.559,258.44,204.535,256,204.535z"/>
<path style="fill:#6B5B6B;" d="M256,341.361L256,341.361c-7.313,0-13.241-5.929-13.241-13.241V195.706
	c0-7.313,5.929-13.241,13.241-13.241l0,0c7.313,0,13.241,5.929,13.241,13.241V328.12C269.241,335.433,263.313,341.361,256,341.361z"
	/>
<g>
	<path style="fill:#463246;" d="M256,288.395L256,288.395c-9.751,0-17.655-7.904-17.655-17.655v-52.966
		c0-9.751,7.904-17.655,17.655-17.655l0,0c9.751,0,17.655,7.904,17.655,17.655v52.966C273.655,280.491,265.75,288.395,256,288.395z"
		/>
	<path style="fill:#463246;" d="M139.107,76.053C70.824,43.083,0,43.567,0,58.879c0,17.394,5.483,34.84,11.511,52.262
		C36.781,79.109,74.764,65.967,139.107,76.053z"/>
</g>
</svg>