<?xml version="1.0" encoding="iso-8859-1"?>
<!-- Uploaded to: SVG Repo, www.svgrepo.com, Generator: SVG Repo Mixer Tools -->
<svg height="800px" width="800px" version="1.1" id="Layer_1" xmlns="http://www.w3.org/2000/svg" xmlns:xlink="http://www.w3.org/1999/xlink" 
	 viewBox="0 0 512 512" xml:space="preserve">
<path style="fill:#FFB441;" d="M256,291.31c0,88.276,44.138,150.069,79.448,150.069c52.966,0,141.241-79.448,141.241-123.586
	c0-26.483-44.138-70.621-44.138-70.621H256V291.31z"/>
<path style="fill:#FFCD73;" d="M289.88,410.709C270.692,384.185,256,342.196,256,291.31v-44.138h97.11
	C317.628,274.378,262.236,331.831,289.88,410.709z"/>
<path style="fill:#E6DCD2;" d="M467.862,70.621c26.483,0,44.138,8.828,44.138,35.31C512,141.241,494.345,256,459.034,256
	s-194.207,0-194.207,0L256,203.034C256,203.034,344.276,70.621,467.862,70.621z"/>
<path style="fill:#CFC1B4;" d="M467.862,70.621c26.483,0,44.138,8.828,44.138,35.31c0,6.975-0.701,17.077-2.078,28.756
	l-28.267,2.141c-5.635-25.105-149.191-20.157-220.031,99.95L256,203.034C256,203.034,344.276,70.621,467.862,70.621z"/>
<path style="fill:#463246;" d="M476.69,114.759c-13.933-44.957-80.092-25.649-116.708-10.975
	c30.98-19.015,67.529-33.163,107.881-33.163c26.483,0,44.138,8.828,44.138,35.31C512,141.241,494.345,256,459.034,256
	c-0.404,0-0.904,0-1.34,0C465.282,231.449,488.124,151.649,476.69,114.759z"/>
<path style="fill:#FFB441;" d="M256,291.31c0,88.276-44.138,150.069-79.448,150.069c-52.966,0-141.241-79.448-141.241-123.586
	c0-26.483,44.138-70.621,44.138-70.621H256V291.31z"/>
<path style="fill:#FFCD73;" d="M222.12,410.709C241.308,384.185,256,342.196,256,291.31v-44.138h-97.11
	C194.372,274.378,249.764,331.831,222.12,410.709z"/>
<path style="fill:#E6DCD2;" d="M44.138,70.621C17.655,70.621,0,79.448,0,105.931C0,141.241,17.655,256,52.966,256
	s194.207,0,194.207,0L256,203.034C256,203.034,167.724,70.621,44.138,70.621z"/>
<path style="fill:#CFC1B4;" d="M44.138,70.621C17.655,70.621,0,79.448,0,105.931c0,6.975,0.701,17.077,2.078,28.756l28.267,2.141
	c5.636-25.105,149.191-20.157,220.031,99.95L256,203.034C256,203.034,167.724,70.621,44.138,70.621z"/>
<path style="fill:#908490;" d="M256,198.621c-2.13,0-3.957-1.526-4.345-3.625c-8.655-47.634-26.112-95.901-26.284-96.384
	c-0.836-2.293,0.345-4.823,2.638-5.655c2.293-0.836,4.828,0.349,5.655,2.638c0.156,0.418,13.086,36.185,22.336,76.737
	c9.25-40.552,22.182-76.319,22.336-76.737c0.828-2.289,3.362-3.47,5.655-2.638c2.293,0.832,3.474,3.362,2.638,5.655
	c-0.172,0.483-17.63,48.78-26.284,96.384C259.957,197.095,258.13,198.621,256,198.621z"/>
<path style="fill:#463246;" d="M256,211.862L256,211.862c-4.875,0-8.828-3.953-8.828-8.828v-17.655c0-4.875,3.953-8.828,8.828-8.828
	l0,0c4.875,0,8.828,3.953,8.828,8.828v17.655C264.828,207.91,260.875,211.862,256,211.862z"/>
<path style="fill:#6B5B6B;" d="M256,291.31L256,291.31c-9.751,0-17.655-7.904-17.655-17.655v-61.793
	c0-9.751,7.904-17.655,17.655-17.655l0,0c9.751,0,17.655,7.904,17.655,17.655v61.793C273.655,283.406,265.751,291.31,256,291.31z"/>
<path style="fill:#463246;" d="M35.31,114.759c13.933-44.957,80.092-25.649,116.708-10.975
	C121.038,84.769,84.49,70.621,44.138,70.621C17.655,70.621,0,79.448,0,105.931C0,141.241,17.655,256,52.966,256
	c0.404,0,0.904,0,1.34,0C46.718,231.449,23.876,151.649,35.31,114.759z"/>
</svg>