<?xml version="1.0" encoding="iso-8859-1"?>
<!-- Uploaded to: SVG Repo, www.svgrepo.com, Generator: SVG Repo Mixer Tools -->
<svg height="800px" width="800px" version="1.1" id="Layer_1" xmlns="http://www.w3.org/2000/svg" xmlns:xlink="http://www.w3.org/1999/xlink" 
	 viewBox="0 0 511.999 511.999" xml:space="preserve">
<path style="fill:#FFD26E;" d="M406.069,239.312H256v44.138c0,0,70.621,141.241,88.276,150.069
	c17.655,8.828,114.759-33.137,114.759-105.931C459.034,283.449,406.069,239.312,406.069,239.312z"/>
<path style="fill:#FFC355;" d="M421.634,329.9C377.349,279.517,298.542,259.54,256,252.138c0-5.289,0-12.826,0-12.826h150.069
	c0,0,52.966,44.138,52.966,88.276c0,14.861-4.092,28.412-10.684,40.533C441.09,354.901,432.32,342.059,421.634,329.9z"/>
<path style="fill:#463246;" d="M489.921,77.32c15.117,0.113,25.698,14.915,20.918,29.257l-38.208,114.626
	c-3.605,10.814-13.725,18.109-25.124,18.109H264.827v-17.655C346.371,102.477,444.389,76.984,489.921,77.32z"/>
<path style="fill:#FF823C;" d="M449.145,102.399c17.035-3.552,31.562,12.68,26.537,29.34l-24.691,81.854
	c-1.442,4.781-3.714,9.345-7.114,13.004c-0.051,0.055-0.102,0.11-0.152,0.164c-7.082,7.74-16.778,12.551-27.268,12.551H265.363
	C317.651,152.096,393.786,113.941,449.145,102.399z"/>
<path style="fill:#FF9B46;" d="M449.231,199.394c1.991,0.294,3.827,0.875,5.558,1.606l-3.798,12.594
	c-1.442,4.781-3.714,9.345-7.115,13.003c-0.051,0.055-0.102,0.11-0.152,0.164c-7.081,7.741-16.778,12.552-27.268,12.552H265.718
	C333.627,198.366,401.757,192.395,449.231,199.394z"/>
<g>
	<circle style="fill:#6B5B6B;" cx="453.705" cy="125.286" r="7.54"/>
	<circle style="fill:#6B5B6B;" cx="447.172" cy="154.836" r="6.436"/>
	<circle style="fill:#6B5B6B;" cx="440.64" cy="184.386" r="5.702"/>
	<circle style="fill:#6B5B6B;" cx="434.118" cy="213.937" r="5.057"/>
</g>
<path style="fill:#FFD26E;" d="M105.931,239.312H256v44.138c0,0-70.621,141.241-88.276,150.069S52.965,400.382,52.965,327.587
	C52.965,283.449,105.931,239.312,105.931,239.312z"/>
<path style="fill:#FFC355;" d="M90.366,329.9c44.284-50.383,123.092-70.36,165.634-77.762c0-5.289,0-12.826,0-12.826H105.931
	c0,0-52.966,44.138-52.966,88.276c0,14.861,4.092,28.412,10.684,40.533C70.91,354.901,79.679,342.059,90.366,329.9z"/>
<path style="fill:#463246;" d="M22.078,77.32C6.96,77.432-3.621,92.235,1.161,106.577l38.208,114.626
	c3.605,10.814,13.725,18.109,25.124,18.109h182.679v-17.655C165.627,102.477,67.609,76.984,22.078,77.32z"/>
<g>
	<path style="fill:#9B6450;" d="M247.172,208.415c-2.431,0-4.405-1.974-4.414-4.405c0-0.474-0.629-47.629-42.655-84.988
		c-1.818-1.617-1.992-4.409-0.371-6.229c1.612-1.832,4.414-1.996,6.232-0.366c45.103,40.092,45.621,89.489,45.621,91.574
		c0,2.431-1.974,4.405-4.405,4.414H247.172z"/>
	<path style="fill:#9B6450;" d="M264.827,208.415c-2.44,0-4.414-1.974-4.414-4.414c0-2.087,0.518-51.482,45.621-91.573
		c1.802-1.63,4.604-1.465,6.232,0.366c1.621,1.818,1.449,4.612-0.371,6.229c-42.164,37.486-42.655,84.504-42.655,84.978
		C269.241,206.441,267.267,208.415,264.827,208.415z"/>
</g>
<circle style="fill:#695046;" cx="256" cy="212.833" r="17.655"/>
<path style="fill:#C8AA4B;" d="M256,354.07c-4.879,0-8.828-3.948-8.828-8.828v-70.621c0-4.879,3.948-8.828,8.828-8.828
	c4.879,0,8.828,3.948,8.828,8.828v70.621C264.827,350.122,260.879,354.07,256,354.07z"/>
<path style="fill:#FF823C;" d="M62.854,102.399c-17.035-3.552-31.562,12.68-26.537,29.34l24.691,81.854
	c1.442,4.781,3.714,9.345,7.114,13.004c0.051,0.055,0.102,0.11,0.152,0.164c7.082,7.74,16.778,12.551,27.268,12.551h151.093
	C194.349,152.096,118.212,113.941,62.854,102.399z"/>
<path style="fill:#FF9B46;" d="M62.768,199.394c-1.991,0.294-3.827,0.875-5.558,1.606l3.798,12.594
	c1.442,4.781,3.714,9.345,7.115,13.003c0.051,0.055,0.102,0.11,0.152,0.164c7.081,7.741,16.778,12.552,27.268,12.552h150.737
	C178.372,198.366,110.243,192.395,62.768,199.394z"/>
<path style="fill:#B49646;" d="M256,283.449L256,283.449c-9.751,0-17.655-7.904-17.655-17.655v-26.483
	c0-9.751,7.904-17.655,17.655-17.655l0,0c9.751,0,17.655,7.904,17.655,17.655v26.483C273.655,275.545,265.75,283.449,256,283.449z"
	/>
<g>
	<circle style="fill:#6B5B6B;" cx="58.298" cy="125.286" r="7.54"/>
	<circle style="fill:#6B5B6B;" cx="64.827" cy="154.836" r="6.436"/>
	<circle style="fill:#6B5B6B;" cx="71.36" cy="184.386" r="5.702"/>
	<circle style="fill:#6B5B6B;" cx="77.881" cy="213.937" r="5.057"/>
</g>
</svg>