<?xml version="1.0" encoding="iso-8859-1"?>
<!-- Uploaded to: SVG Repo, www.svgrepo.com, Generator: SVG Repo Mixer Tools -->
<svg height="800px" width="800px" version="1.1" id="Layer_1" xmlns="http://www.w3.org/2000/svg" xmlns:xlink="http://www.w3.org/1999/xlink" 
	 viewBox="0 0 512 512" xml:space="preserve">
<path style="fill:#8F664D;" d="M44.138,44.17C17.655,44.17,0,61.825,0,88.308c0,44.138,61.793,167.724,105.931,167.724
	c30.345,0,39.172,0,39.172,0L256,247.205C256,247.205,124.075,44.17,44.138,44.17z"/>
<path style="fill:#7C5546;" d="M132.84,256.031C99.993,168.967,89.767,81.083,87.647,59.325
	C72.271,49.909,57.474,44.17,44.138,44.17C17.655,44.17,0,61.825,0,88.308c0,44.138,61.793,167.724,105.931,167.724
	C118.108,256.031,126.773,256.031,132.84,256.031z"/>
<path style="fill:#6F463C;" d="M19.31,110.377c0-24.828,13.337-39.724,38.03-39.724c42.121,0,108.872,64.476,158.976,120.563
	C171.02,131.116,96.451,44.17,44.138,44.17C17.655,44.17,0,61.825,0,88.308C0,121.65,35.262,200.296,71.538,236.79
	C43.342,198.869,19.31,137.853,19.31,110.377z"/>
<path style="fill:#7C5546;" d="M52.966,353.135c-8.342,16.245-7.724,33.471,3.678,47.448c21.916,26.865,12.505,33.839,22.805,49.655
	c11.678,17.932,52.168,24.341,97.103,8.828c46.345-16,79.448-176.552,79.448-176.552v-44.138
	C114.759,220.722,59.954,339.526,52.966,353.135z"/>
<path style="fill:#507387;" d="M247.172,264.859c-38.506-11.001-76.999,8.844-100.552,25.367
	c18.574,40.714,42.759,79.333,74.401,108.35C242.638,347.227,256,282.515,256,282.515v-13.781
	C253.289,267.135,250.391,265.779,247.172,264.859z"/>
<path style="fill:#A07855;" d="M219.742,401.61C242.109,349.81,256,282.515,256,282.515v-35.31
	C256,247.205,195.902,290.226,219.742,401.61z"/>
<path style="fill:#32465F;" d="M176.552,459.066c16.917-5.839,32.055-30.962,44.478-60.482
	c-39.002-35.761-66.827-86.055-86.559-136.963c-53.176,31.583-77.056,82.85-81.505,91.514c-8.342,16.245-7.724,33.471,3.678,47.448
	c21.916,26.865,12.505,33.839,22.805,49.655C91.126,468.171,131.616,474.58,176.552,459.066z"/>
<g>
	<circle style="fill:#507387;" cx="108.966" cy="337.413" r="8.828"/>
	<circle style="fill:#507387;" cx="161.103" cy="415.482" r="8.828"/>
	<circle style="fill:#507387;" cx="133.241" cy="375.206" r="8.828"/>
	<circle style="fill:#507387;" cx="129.291" cy="293.727" r="6.805"/>
	<circle style="fill:#507387;" cx="159.36" cy="349.451" r="6.805"/>
	<circle style="fill:#507387;" cx="197.517" cy="398.831" r="6.805"/>
	<circle style="fill:#507387;" cx="177.567" cy="375.57" r="6.805"/>
	<circle style="fill:#507387;" cx="142.709" cy="324.072" r="6.805"/>
	<circle style="fill:#507387;" cx="121.655" cy="441.964" r="8.828"/>
	<circle style="fill:#507387;" cx="78.069" cy="371.068" r="8.828"/>
	<circle style="fill:#507387;" cx="107.31" cy="403.344" r="8.828"/>
</g>
<path style="fill:#8F664D;" d="M467.862,44.17C494.345,44.17,512,61.825,512,88.308c0,44.138-61.793,167.724-105.931,167.724
	c-30.345,0-39.172,0-39.172,0L256,247.205C256,247.205,387.925,44.17,467.862,44.17z"/>
<path style="fill:#7C5546;" d="M379.16,256.031c32.847-87.064,43.073-174.948,45.193-196.706
	c15.377-9.417,30.173-15.156,43.509-15.156c26.483,0,44.138,17.655,44.138,44.138c0,44.138-61.793,167.724-105.931,167.724
	C393.892,256.031,385.227,256.031,379.16,256.031z"/>
<path style="fill:#6F463C;" d="M492.69,110.377c0-24.828-13.336-39.724-38.03-39.724c-42.121,0-108.872,64.476-158.976,120.563
	C340.98,131.116,415.549,44.17,467.862,44.17C494.345,44.17,512,61.825,512,88.308c0,33.342-35.262,111.988-71.538,148.482
	C468.658,198.869,492.69,137.853,492.69,110.377z"/>
<path style="fill:#7C5546;" d="M459.034,353.135c8.342,16.245,7.724,33.471-3.678,47.448
	c-21.916,26.865-12.505,33.839-22.805,49.655c-11.678,17.932-52.168,24.341-97.103,8.828C289.103,443.066,256,282.514,256,282.514
	v-44.138C397.241,220.722,452.045,339.526,459.034,353.135z"/>
<path style="fill:#507387;" d="M264.828,264.859c38.505-11.001,76.999,8.844,100.552,25.367
	c-18.574,40.714-42.759,79.333-74.401,108.35C269.362,347.227,256,282.515,256,282.515v-13.781
	C258.711,267.135,261.608,265.779,264.828,264.859z"/>
<path style="fill:#A07855;" d="M292.258,401.61C269.891,349.81,256,282.515,256,282.515v-35.31
	C256,247.205,316.098,290.226,292.258,401.61z"/>
<path style="fill:#32465F;" d="M335.448,459.066c-16.917-5.839-32.055-30.962-44.478-60.482
	c39.003-35.761,66.827-86.055,86.559-136.963c53.176,31.582,77.056,82.85,81.505,91.514c8.342,16.245,7.724,33.471-3.678,47.448
	c-21.916,26.865-12.505,33.839-22.805,49.655C420.874,468.171,380.384,474.58,335.448,459.066z"/>
<g>
	<circle style="fill:#507387;" cx="403.034" cy="337.413" r="8.828"/>
	<circle style="fill:#507387;" cx="350.897" cy="415.482" r="8.828"/>
	<circle style="fill:#507387;" cx="378.759" cy="375.206" r="8.828"/>
	<circle style="fill:#507387;" cx="382.709" cy="293.727" r="6.805"/>
	<circle style="fill:#507387;" cx="352.64" cy="349.451" r="6.805"/>
	<circle style="fill:#507387;" cx="314.483" cy="398.831" r="6.805"/>
	<circle style="fill:#507387;" cx="334.433" cy="375.57" r="6.805"/>
	<circle style="fill:#507387;" cx="369.291" cy="324.072" r="6.805"/>
	<circle style="fill:#507387;" cx="390.345" cy="441.964" r="8.828"/>
	<circle style="fill:#507387;" cx="433.931" cy="371.068" r="8.828"/>
	<circle style="fill:#507387;" cx="404.69" cy="403.344" r="8.828"/>
</g>
<path style="fill:#908490;" d="M256,207.481c-2.13,0-3.957-1.526-4.345-3.62c-8.491-46.332-42.759-85.763-43.104-86.155
	c-1.612-1.832-1.431-4.617,0.396-6.229c1.827-1.608,4.621-1.436,6.225,0.401c1.293,1.47,28.207,32.388,40.828,72.914
	c12.62-40.526,39.534-71.444,40.828-72.914c1.612-1.836,4.396-2.008,6.225-0.401c1.827,1.612,2.008,4.396,0.396,6.229
	c-0.345,0.392-34.612,39.823-43.103,86.155C259.957,205.954,258.13,207.481,256,207.481z"/>
<path style="fill:#463246;" d="M256,344.307c-4.879,0-8.828-3.948-8.828-8.828V203.066c0-4.879,3.948-8.828,8.828-8.828
	c4.879,0,8.828,3.948,8.828,8.828v132.414C264.828,340.359,260.879,344.307,256,344.307z"/>
<path style="fill:#5A464B;" d="M256,273.686L256,273.686c-9.751,0-17.655-7.904-17.655-17.655v-26.483
	c0-9.751,7.904-17.655,17.655-17.655l0,0c9.751,0,17.655,7.904,17.655,17.655v26.483C273.655,265.782,265.751,273.686,256,273.686z"
	/>
</svg>