<?xml version="1.0" encoding="iso-8859-1"?>
<!-- Uploaded to: SVG Repo, www.svgrepo.com, Generator: SVG Repo Mixer Tools -->
<svg height="800px" width="800px" version="1.1" id="Layer_1" xmlns="http://www.w3.org/2000/svg" xmlns:xlink="http://www.w3.org/1999/xlink" 
	 viewBox="0 0 512 512" xml:space="preserve">
<path style="fill:#FFA046;" d="M388.414,258.029c26.483,0,61.793,17.655,61.793,44.138c0,26.483-44.138,114.759-105.931,114.759
	c-17.655,0-88.276-114.759-88.276-114.759v-44.138C256,258.029,370.759,258.029,388.414,258.029z"/>
<g>
	<path style="fill:#FF8C41;" d="M256,266.254c60.266,23.326,148.531,59.562,182.431,73.538
		c-17.068,34.825-51.373,77.132-94.155,77.132c-17.655,0-88.276-150.069-88.276-150.069V266.254z"/>
	<path style="fill:#FF8C41;" d="M450.207,99.132C477.458,93.077,512,90.305,512,116.788s-20.499,43.546-26.483,79.448
		c-4.108,24.648-10.127,39.737-15.391,48.826c-4.692,8.105-13.428,12.966-22.793,12.966H264.828V249.2
		C264.828,249.201,370.759,116.788,450.207,99.132z"/>
</g>
<path style="fill:#FF783C;" d="M264.828,249.201c0,0,105.931-132.414,185.379-150.069C477.458,93.077,512,90.305,512,116.788
	c0,2.85-0.337,5.551-0.768,8.22c-32.22-2.874-102.882-9.594-237.577,133.022h-8.828V249.201L264.828,249.201z"/>
<g>
	<path style="fill:#594759;" d="M485.517,143.27h20.011c-2.499,5.686-5.425,11.463-8.341,17.655h-11.67
		c-4.879,0-8.828-3.953-8.828-8.828S480.638,143.27,485.517,143.27z"/>
	<path style="fill:#594759;" d="M459.034,187.408c0-4.875,3.948-8.828,8.828-8.828h22.217c-1.827,5.432-3.479,11.156-4.562,17.655
		h-17.655C462.983,196.236,459.034,192.283,459.034,187.408z"/>
	<path style="fill:#594759;" d="M459.034,222.719c0-4.875,3.948-8.828,8.828-8.828h14.018c-1.709,6.866-3.561,12.71-5.449,17.655
		h-8.569C462.983,231.546,459.034,227.594,459.034,222.719z"/>
	<circle style="fill:#594759;" cx="370.67" cy="178.582" r="8.828"/>
	<circle style="fill:#594759;" cx="423.636" cy="178.582" r="8.828"/>
	<circle style="fill:#594759;" cx="397.241" cy="205.065" r="8.828"/>
	<circle style="fill:#594759;" cx="344.276" cy="205.065" r="8.828"/>
	<circle style="fill:#594759;" cx="370.714" cy="231.591" r="8.828"/>
	<path style="fill:#594759;" d="M407.172,327.546c12.162-31.08,7.785-51.307-9.294-68.8c24.708,3.502,52.329,19.996,52.329,43.421
		c0,26.01-42.593,111.572-102.659,114.614C358.279,396.318,391.315,368.07,407.172,327.546z"/>
	<circle style="fill:#594759;" cx="379.586" cy="293.34" r="8.828"/>
	<circle style="fill:#594759;" cx="361.843" cy="328.651" r="8.828"/>
</g>
<g>
	<circle style="fill:#FF783C;" cx="430.345" cy="297.015" r="8.828"/>
	<circle style="fill:#FF783C;" cx="423.724" cy="327.547" r="7.54"/>
	<circle style="fill:#FF783C;" cx="410.847" cy="354.758" r="6.98"/>
	<circle style="fill:#FF783C;" cx="393.931" cy="377.379" r="6.613"/>
</g>
<path style="fill:#FFA046;" d="M123.586,258.029c-26.483,0-61.793,17.655-61.793,44.138c0,26.483,44.138,114.759,105.931,114.759
	c17.655,0,88.276-114.759,88.276-114.759v-44.138C256,258.029,141.241,258.029,123.586,258.029z"/>
<g>
	<path style="fill:#FF8C41;" d="M256,266.254c-60.266,23.326-148.531,59.562-182.431,73.538
		c17.068,34.825,51.373,77.132,94.155,77.132c17.655,0,88.276-150.069,88.276-150.069V266.254z"/>
	<path style="fill:#FF8C41;" d="M61.793,99.132C34.542,93.077,0,90.305,0,116.788s20.499,43.546,26.483,79.448
		c4.108,24.648,10.127,39.737,15.391,48.826c4.692,8.105,13.428,12.966,22.793,12.966h182.506V249.2
		C247.172,249.201,141.241,116.788,61.793,99.132z"/>
</g>
<path style="fill:#FF783C;" d="M247.172,249.201c0,0-105.931-132.414-185.379-150.069C34.542,93.077,0,90.305,0,116.788
	c0,2.85,0.337,5.551,0.768,8.22c32.22-2.874,102.882-9.594,237.577,133.022h8.828V249.201z"/>
<g>
	<path style="fill:#908490;" d="M247.164,244.788c-2.044,0-3.88-1.436-4.31-3.521c-17.112-82.914-68.362-120.522-68.879-120.893
		c-1.974-1.422-2.431-4.181-1.009-6.159c1.422-1.987,4.172-2.435,6.164-1.013c2.216,1.594,54.569,40.022,72.362,126.28
		c0.5,2.388-1.043,4.724-3.431,5.216C247.767,244.757,247.466,244.788,247.164,244.788z"/>
	<path style="fill:#908490;" d="M264.836,244.788c-0.301,0-0.604-0.03-0.897-0.09c-2.388-0.491-3.932-2.828-3.431-5.216
		c17.793-86.259,70.146-124.685,72.362-126.28c1.992-1.427,4.733-0.966,6.155,1.009c1.422,1.978,0.974,4.733-1,6.159
		c-0.518,0.375-51.81,38.198-68.879,120.896C268.715,243.352,266.879,244.788,264.836,244.788z"/>
</g>
<g>
	<circle style="fill:#6B5B6B;" cx="176.552" cy="116.789" r="8.828"/>
	<circle style="fill:#6B5B6B;" cx="335.448" cy="116.789" r="8.828"/>
</g>
<g>
	<path style="fill:#594759;" d="M256,231.546c-9.75,0-17.655,7.904-17.655,17.655v35.31c0,6.518,3.573,12.148,8.828,15.207v90.724
		c0,4.875,3.948,8.828,8.828,8.828c4.879,0,8.828-3.953,8.828-8.828v-90.724c5.255-3.058,8.828-8.689,8.828-15.207v-35.31
		C273.655,239.45,265.75,231.546,256,231.546z"/>
	<path style="fill:#594759;" d="M26.483,143.27H6.472c2.499,5.686,5.425,11.463,8.341,17.655h11.67c4.879,0,8.828-3.953,8.828-8.828
		S31.362,143.27,26.483,143.27z"/>
	<path style="fill:#594759;" d="M52.966,187.408c0-4.875-3.948-8.828-8.828-8.828H21.921c1.827,5.432,3.479,11.156,4.562,17.655
		h17.655C49.017,196.236,52.966,192.283,52.966,187.408z"/>
	<path style="fill:#594759;" d="M52.966,222.719c0-4.875-3.948-8.828-8.828-8.828H30.12c1.709,6.866,3.561,12.71,5.448,17.655h8.57
		C49.017,231.546,52.966,227.594,52.966,222.719z"/>
	<circle style="fill:#594759;" cx="141.33" cy="178.582" r="8.828"/>
	<circle style="fill:#594759;" cx="88.364" cy="178.582" r="8.828"/>
	<circle style="fill:#594759;" cx="114.759" cy="205.065" r="8.828"/>
	<circle style="fill:#594759;" cx="167.724" cy="205.065" r="8.828"/>
	<circle style="fill:#594759;" cx="141.286" cy="231.591" r="8.828"/>
	<path style="fill:#594759;" d="M104.828,327.546c-12.162-31.08-7.785-51.307,9.294-68.8c-24.708,3.502-52.329,19.996-52.329,43.421
		c0,26.01,42.593,111.572,102.659,114.614C153.721,396.318,120.685,368.07,104.828,327.546z"/>
	<circle style="fill:#594759;" cx="132.414" cy="293.34" r="8.828"/>
	<circle style="fill:#594759;" cx="150.157" cy="328.651" r="8.828"/>
</g>
<g>
	<circle style="fill:#FF783C;" cx="81.655" cy="297.015" r="8.828"/>
	<circle style="fill:#FF783C;" cx="88.276" cy="327.547" r="7.54"/>
	<circle style="fill:#FF783C;" cx="101.153" cy="354.758" r="6.98"/>
	<circle style="fill:#FF783C;" cx="118.069" cy="377.379" r="6.613"/>
</g>
</svg>