<?xml version="1.0" encoding="iso-8859-1"?>
<!-- Uploaded to: SVG Repo, www.svgrepo.com, Generator: SVG Repo Mixer Tools -->
<svg height="800px" width="800px" version="1.1" id="Layer_1" xmlns="http://www.w3.org/2000/svg" xmlns:xlink="http://www.w3.org/1999/xlink" 
	 viewBox="0 0 512 512" xml:space="preserve">
<path style="fill:#695046;" d="M247.172,296.678c0,0-32.242,120.593-61.793,132.414C141.241,446.746,35.31,367.298,44.138,323.16
	s69.15-70.621,69.15-70.621l133.885-17.655V296.678z"/>
<g>
	<path style="fill:#58413C;" d="M68.713,375.99c21.847,23.361,54.247,44.659,81.89,52.452
		c14.065-36.867,44.711-104.407,96.569-158.699v-34.859l-125.536,16.554C89.866,288.884,64.569,333.052,68.713,375.99z"/>
	<path style="fill:#58413C;" d="M70.621,84.815C34.931,77.677,0,84.815,0,137.781c0,35.705,11.028,77.472,18.759,104.828
		c4.781,16.919,26.801,25.155,39.724,23.54l188.69-22.436v-26.483C220.69,181.919,114.759,93.643,70.621,84.815z"/>
</g>
<path style="fill:#FF8C41;" d="M76.959,230.123c14.397-11.951,48.147-37.671,97.393-59.133c8.321-3.626,9.974-14.774,2.932-20.5
	c-5.391-4.383-10.882-8.73-16.408-12.98c-21.707-16.69-51.946-16.291-73.497,0.599c-25.19,19.743-50.882,45.473-56.356,71.33
	c-2.093,9.885,2.244,19.887,11.098,24.755C54.91,241.226,67.683,237.823,76.959,230.123z"/>
<path style="fill:#73C8EB;" d="M185.379,314.333c-8.828-44.138-97.103-9.702-97.103,35.31c0,0.138,0,0.277,0.001,0.417
	c0.199,34.01,22.573,64.41,54.59,75.885c7.244,2.596,14.271,4.38,20.828,5.162l4.03-2.015
	C167.724,429.091,194.207,358.471,185.379,314.333z"/>
<path style="fill:#618CA9;" d="M187.04,340.41c0.354-9.174-0.06-18.068-1.661-26.078c-8.828-44.138-97.103-9.702-97.103,35.31
	C104.5,333.419,157.923,309.898,187.04,340.41z"/>
<path style="fill:#695046;" d="M264.828,296.678c0,0,32.242,120.593,61.793,132.414c44.138,17.655,150.069-61.793,141.241-105.931
	c-8.828-44.138-69.15-70.621-69.15-70.621l-133.885-17.655V296.678z"/>
<g>
	<path style="fill:#58413C;" d="M443.286,375.99c-21.847,23.361-54.247,44.659-81.89,52.452
		c-14.065-36.867-44.711-104.407-96.569-158.699v-34.859l125.536,16.554C422.134,288.884,447.431,333.052,443.286,375.99z"/>
	<path style="fill:#58413C;" d="M441.379,84.815c35.69-7.138,70.621,0,70.621,52.966c0,35.705-11.028,77.472-18.759,104.828
		c-4.781,16.919-26.801,25.155-39.724,23.54l-188.69-22.436v-26.483C291.31,181.919,397.241,93.643,441.379,84.815z"/>
</g>
<path style="fill:#FF8C41;" d="M435.041,230.123c-14.397-11.951-48.147-37.671-97.393-59.133c-8.321-3.626-9.974-14.774-2.931-20.5
	c5.391-4.383,10.882-8.73,16.408-12.98c21.707-16.69,51.946-16.291,73.497,0.599c25.19,19.743,50.882,45.473,56.356,71.33
	c2.093,9.885-2.244,19.887-11.099,24.755C457.089,241.226,444.317,237.823,435.041,230.123z"/>
<path style="fill:#73C8EB;" d="M326.621,314.333c8.828-44.138,97.103-9.702,97.103,35.31c0,0.138,0,0.277-0.001,0.417
	c-0.199,34.01-22.573,64.41-54.59,75.885c-7.244,2.596-14.271,4.38-20.828,5.162l-4.03-2.016
	C344.276,429.091,317.793,358.471,326.621,314.333z"/>
<path style="fill:#618CA9;" d="M324.96,340.41c-0.354-9.174,0.06-18.068,1.661-26.078c8.828-44.138,97.103-9.702,97.103,35.31
	C407.5,333.419,354.077,309.898,324.96,340.41z"/>
<path style="fill:#908490;" d="M256,195.16c-1.345,0-2.612-0.608-3.448-1.655c-35.656-44.569-44.69-105.495-45.06-108.065
	c-0.345-2.414,1.336-4.647,3.742-4.991c2.354-0.401,4.647,1.319,5,3.742c0.086,0.586,8.483,57.043,39.767,99.319
	c31.285-42.275,39.681-98.733,39.767-99.319c0.353-2.422,2.595-4.142,5-3.742c2.406,0.345,4.086,2.578,3.742,4.991
	c-0.371,2.569-9.405,63.496-45.06,108.065C258.612,194.552,257.345,195.16,256,195.16z"/>
<path style="fill:#5A464B;" d="M256,393.781c-4.879,0-8.828-3.953-8.828-8.828V190.746c0-4.875,3.948-8.828,8.828-8.828
	c4.879,0,8.828,3.953,8.828,8.828v194.207C264.828,389.828,260.879,393.781,256,393.781z"/>
<path style="fill:#463246;" d="M256,314.333L256,314.333c-9.751,0-17.655-7.904-17.655-17.655v-79.448
	c0-9.751,7.904-17.655,17.655-17.655l0,0c9.751,0,17.655,7.904,17.655,17.655v79.448C273.655,306.429,265.75,314.333,256,314.333z"
	/>
<g>
	<path style="fill:#618CA9;" d="M150.155,384.953c-4.879,0-8.871-3.953-8.871-8.828s3.905-8.828,8.785-8.828h0.086
		c4.879,0,8.828,3.953,8.828,8.828S155.034,384.953,150.155,384.953z"/>
	<path style="fill:#618CA9;" d="M361.931,384.953h-0.086c-4.879,0-8.828-3.953-8.828-8.828s3.948-8.828,8.828-8.828
		c4.879,0,8.871,3.953,8.871,8.828S366.81,384.953,361.931,384.953z"/>
</g>
</svg>